<svg width="22" height="20" viewBox="0 0 22 20" fill="none" xmlns="http://www.w3.org/2000/svg">
<path d="M21.3444 12.9265C20.5025 12.5026 18.179 11.0398 18.1503 7.79582C18.1257 5.14032 19.8878 3.59621 20.6374 3.05706C20.8153 2.92904 20.8544 2.67854 20.7192 2.50604C20.0963 1.71207 19.3681 1.20279 18.6685 0.872658C18.6689 0.872607 18.6694 0.872505 18.6698 0.872454C18.5792 0.829646 18.4241 0.761701 18.2999 0.712798C14.7798 -0.67287 12.5614 1.45106 11.2175 1.45106C10.1887 1.45106 8.60098 0.288521 6.9188 0.320259C4.70834 0.352353 2.67232 1.60614 1.53243 3.58458C-0.216376 6.61998 0.360347 10.7694 1.72286 14.0033C1.72286 14.0033 1.72281 14.0033 1.72281 14.0034C1.75769 14.0861 1.81325 14.2148 1.85956 14.3188C1.85961 14.3187 1.85961 14.3186 1.85966 14.3185C2.25439 15.205 2.70629 16.015 3.18236 16.7036C4.27553 18.2837 5.57964 20.0637 7.29316 19.9982C8.94238 19.9328 9.56587 18.9319 11.5589 18.9319C13.5507 18.9319 14.1126 19.9982 15.8564 19.9665C17.6316 19.9328 18.7557 18.3541 19.8414 16.7665C20.7969 15.3715 21.3241 14.01 21.5353 13.397C21.5983 13.2143 21.5171 13.0134 21.3444 12.9265Z" fill="#D6D6D8"/>
</svg>
